<svg width="118" height="38" viewBox="0 0 118 38" fill="none" xmlns="http://www.w3.org/2000/svg">
<path d="M7.56 25.5H14.13V30H1.68V8.85H7.56V25.5ZM32.4963 21.39C32.4963 21.85 32.4663 22.31 32.4063 22.77H21.2763C21.3363 23.69 21.5863 24.38 22.0263 24.84C22.4863 25.28 23.0663 25.5 23.7663 25.5C24.7463 25.5 25.4463 25.06 25.8663 24.18H32.1363C31.8763 25.34 31.3663 26.38 30.6063 27.3C29.8663 28.2 28.9263 28.91 27.7863 29.43C26.6463 29.95 25.3863 30.21 24.0063 30.21C22.3463 30.21 20.8663 29.86 19.5663 29.16C18.2863 28.46 17.2763 27.46 16.5363 26.16C15.8163 24.86 15.4563 23.33 15.4563 21.57C15.4563 19.81 15.8163 18.29 16.5363 17.01C17.2563 15.71 18.2563 14.71 19.5363 14.01C20.8363 13.31 22.3263 12.96 24.0063 12.96C25.6663 12.96 27.1363 13.3 28.4163 13.98C29.6963 14.66 30.6963 15.64 31.4163 16.92C32.1363 18.18 32.4963 19.67 32.4963 21.39ZM26.4963 19.92C26.4963 19.2 26.2563 18.64 25.7763 18.24C25.2963 17.82 24.6963 17.61 23.9763 17.61C23.2563 17.61 22.6663 17.81 22.2063 18.21C21.7463 18.59 21.4463 19.16 21.3063 19.92H26.4963ZM48.2227 9.06V12.45H39.4927V17.82H46.1827V21.15H39.4927V30H35.2927V9.06H48.2227ZM81.9246 11.4C81.1846 11.4 80.5646 11.17 80.0646 10.71C79.5846 10.23 79.3446 9.64 79.3446 8.94C79.3446 8.24 79.5846 7.66 80.0646 7.2C80.5646 6.72 81.1846 6.48 81.9246 6.48C82.6646 6.48 83.2746 6.72 83.7546 7.2C84.2546 7.66 84.5046 8.24 84.5046 8.94C84.5046 9.64 84.2546 10.23 83.7546 10.71C83.2746 11.17 82.6646 11.4 81.9246 11.4ZM83.9946 13.38V30H79.7946V13.38H83.9946ZM108.784 13.14C110.824 13.14 112.464 13.77 113.704 15.03C114.964 16.27 115.594 18.01 115.594 20.25V30H111.394V20.82C111.394 19.52 111.064 18.53 110.404 17.85C109.744 17.15 108.844 16.8 107.704 16.8C106.564 16.8 105.654 17.15 104.974 17.85C104.314 18.53 103.984 19.52 103.984 20.82V30H99.7842V20.82C99.7842 19.52 99.4542 18.53 98.7942 17.85C98.1342 17.15 97.2342 16.8 96.0942 16.8C94.9342 16.8 94.0142 17.15 93.3342 17.85C92.6742 18.53 92.3442 19.52 92.3442 20.82V30H88.1442V13.38H92.3442V15.39C92.8842 14.69 93.5742 14.14 94.4142 13.74C95.2742 13.34 96.2142 13.14 97.2342 13.14C98.5342 13.14 99.6942 13.42 100.714 13.98C101.734 14.52 102.524 15.3 103.084 16.32C103.624 15.36 104.404 14.59 105.424 14.01C106.464 13.43 107.584 13.14 108.784 13.14Z" fill="#F3F5FB"/>
<path d="M54.3708 3.04153C54.1407 3.22317 54.1226 3.62278 54.3405 3.80442C54.389 3.84075 54.6554 3.9134 54.9339 3.96184C55.5394 4.07083 56.0601 4.31301 56.496 4.70051C56.6716 4.85188 56.8048 4.99114 56.7987 5.00325C56.7866 5.01536 56.5868 4.95481 56.3567 4.87004C55.1821 4.44016 53.8622 4.43411 52.736 4.85188C52.4636 4.95481 52.3607 5.02747 52.288 5.17278C52.179 5.40286 52.2517 5.63899 52.4817 5.79036C52.6271 5.88723 52.6634 5.88118 53.1962 5.72375C53.8138 5.54211 54.8249 5.4634 55.2972 5.56028C55.5636 5.61477 55.5696 5.61477 55.388 5.65715C54.4192 5.89329 53.723 6.47453 53.1841 7.50989C52.6028 8.63 52.6089 9.22942 53.2083 9.22942C53.4747 9.22942 53.5776 9.13254 53.6987 8.76321C53.9954 7.83684 54.5222 7.08606 55.0792 6.79543C55.3517 6.65012 55.4546 6.63196 55.9632 6.63196C56.278 6.63196 56.5868 6.66223 56.6474 6.69856C56.7382 6.75305 56.6898 6.80149 56.2901 7.05579C55.4122 7.60676 54.6493 8.52102 54.2316 9.51399C53.8683 10.3738 53.614 11.5968 53.7411 11.8693C53.8925 12.1841 54.3587 12.2386 54.5403 11.9661C54.5888 11.8935 54.6735 11.5907 54.722 11.2941C54.8249 10.7128 55.0429 10.0105 55.2487 9.61086C55.6544 8.80559 56.3931 8.04875 57.1196 7.67336L57.5616 7.44328L57.7251 8.09719C57.9067 8.83586 58.1066 9.32024 58.7726 10.6402C59.814 12.729 60.3105 13.94 60.5587 15.0238C60.8857 16.4405 61.0915 18.8866 61.0128 20.4851L60.9704 21.3751L57.1196 21.363L53.2689 21.3448L53.2265 20.7999C53.172 20.1279 53.2628 18.814 53.4263 18.0269C53.6806 16.7675 54.1771 15.5445 54.8915 14.4001C55.1519 13.9884 55.2972 13.6917 55.2972 13.5827C55.2972 13.2073 54.7765 12.9954 54.5101 13.2618C54.0681 13.7038 53.2325 15.3204 52.8571 16.4587C51.8763 19.4134 52.0761 22.5073 53.4202 25.2986C55.9995 30.6509 62.1571 33.2726 67.7941 31.4198C69.5802 30.8325 71.1665 29.8517 72.4925 28.5257C74.1696 26.8364 75.2353 24.8505 75.7439 22.465C75.8952 21.7626 75.9073 21.5991 75.9134 20.2247C75.9134 19.038 75.8892 18.6323 75.8044 18.1964C75.6167 17.264 75.3927 16.5072 75.2595 16.3618C75.1081 16.1984 74.7993 16.1863 74.6056 16.3376C74.4239 16.489 74.43 16.707 74.654 17.5607C74.7569 17.9421 74.872 18.4991 74.9083 18.8019C74.981 19.3831 74.9991 21.1208 74.9386 21.2782C74.9083 21.363 74.7025 21.3751 73.2493 21.3751H71.5964L71.5722 20.7515C71.554 20.1884 71.5298 20.0915 71.33 19.6616C70.4823 17.8816 68.2179 17.4214 66.7587 18.7353C66.1411 19.2923 65.8263 20.0068 65.8202 20.8726L65.8142 21.3751H64.7364H63.6648L63.8948 20.7818C64.6335 18.8806 65.4327 17.4456 66.3773 16.3195C66.6013 16.0531 67.5095 15.0964 68.3995 14.1882C69.889 12.6685 70.1614 12.3415 70.6519 11.5302C70.7185 11.4212 70.7366 11.4273 70.9485 11.6271C71.5116 12.1599 71.9839 13.0257 72.1595 13.8613C72.2685 14.3941 72.2745 15.4355 72.1655 16.047C72.0505 16.707 72.1655 16.9552 72.6015 16.9552C72.8921 16.9552 73.0192 16.7493 73.1343 16.1075C73.2796 15.2599 73.2251 14.0187 73.0132 13.3042C72.771 12.4989 72.3956 11.7966 71.8991 11.2517L71.6933 11.0216H71.9657C72.3593 11.0216 72.8921 11.2396 73.2069 11.5241C73.6974 11.9843 73.9456 12.6927 73.9456 13.6736C73.9456 14.1882 73.9577 14.2488 74.097 14.382C74.2968 14.5878 74.5692 14.5818 74.7751 14.3759C74.9325 14.2185 74.9325 14.2185 74.8962 13.4556C74.872 12.8622 74.8296 12.5777 74.7085 12.1962C74.4603 11.4212 73.9396 10.7249 73.4067 10.4464C73.3038 10.398 73.2191 10.3435 73.2191 10.3314C73.2191 10.295 73.7821 10.4161 74.097 10.513C74.5329 10.6583 75.0778 10.9368 75.429 11.2032C75.8226 11.4939 75.9558 11.5363 76.1737 11.4212C76.3735 11.3183 76.428 11.2154 76.428 10.9611C76.428 10.6038 75.3079 9.86516 74.3392 9.57453C73.8185 9.41711 72.9648 9.32024 72.5409 9.36868C72.2382 9.39895 72.2261 9.39289 72.3411 9.30813C72.7286 8.99934 73.6913 8.86008 74.5814 8.98723C74.9023 9.02961 74.9628 9.02356 75.096 8.91457C75.2776 8.76926 75.2958 8.42414 75.1323 8.2425C74.878 7.96399 73.5642 7.87317 72.8013 8.07903C72.4017 8.18801 71.8083 8.46047 71.5056 8.67239C71.3784 8.76321 71.336 8.76926 71.3179 8.70871C71.3058 8.66633 71.2513 8.45442 71.1968 8.23645C71.0515 7.69758 70.7306 7.14055 70.3067 6.71672C69.9919 6.40188 69.9192 6.3595 69.7134 6.3595C69.5257 6.3595 69.447 6.39582 69.3501 6.51692C69.1442 6.77727 69.1866 6.92864 69.5923 7.36457C69.9858 7.7884 70.2765 8.33332 70.3431 8.78137L70.3855 9.04778L70.0767 8.70871C69.6771 8.27278 69.2775 8.01848 68.6901 7.83078C68.0241 7.60676 66.9706 7.61282 66.1109 7.83684C65.4569 8.00637 65.2571 8.1093 65.1542 8.32727C65.0694 8.52102 65.1663 8.78742 65.3661 8.90246C65.5054 8.98117 65.5659 8.98117 65.905 8.8843C66.6679 8.66633 67.3944 8.58157 67.9091 8.65422C68.5569 8.74504 68.9142 8.91457 69.2896 9.30813C69.4591 9.48977 69.5862 9.64719 69.5681 9.66535C69.5499 9.68352 69.4167 9.66535 69.2775 9.62297C68.5993 9.44133 67.5034 9.58059 66.6497 9.96203C65.8868 10.295 64.6941 11.2517 64.5245 11.6695C64.3792 12.0085 64.5851 12.3173 64.9544 12.3173C65.1239 12.3173 65.239 12.2386 65.6991 11.8027C66.7466 10.8097 67.8243 10.3738 68.8415 10.5372C69.2714 10.6099 69.8284 10.8157 69.8284 10.9126C69.8284 11.0156 69.5681 11.4697 69.3259 11.8087C69.1866 11.9904 68.3269 12.9046 67.4066 13.8431C65.2026 16.0833 64.6698 16.7978 63.7132 18.7898C63.3136 19.6193 62.7989 20.8726 62.7142 21.2116C62.6718 21.3691 62.6536 21.3751 62.3146 21.3751H61.9573L61.9937 20.3943C62.0542 18.82 61.8847 16.6101 61.5819 15.1691C61.2913 13.7644 61.0128 13.0378 59.7413 10.4343C58.9663 8.84192 58.6636 8.08508 58.5909 7.53411L58.5546 7.22532L58.8271 7.18293C59.5778 7.0679 60.5587 7.44934 61.2247 8.1093C61.697 8.57551 61.9513 8.92668 62.2903 9.59875C62.5749 10.1558 62.7323 10.2769 63.0411 10.1679C63.4226 10.0347 63.4468 9.70168 63.1138 9.05989C62.4235 7.72785 61.364 6.74094 60.2317 6.38371C59.9775 6.305 59.6868 6.2384 59.5778 6.2384C59.3235 6.2384 59.1964 6.15969 59.3054 6.07493C59.7171 5.74797 60.5405 5.60266 61.1823 5.75403C61.6243 5.85696 62.3085 6.17786 62.7626 6.49875C63.253 6.83782 63.3196 6.86204 63.5618 6.75911C63.7798 6.66829 63.8646 6.49875 63.8222 6.23235C63.7737 5.88118 62.4235 5.0759 61.479 4.83977C60.5587 4.60969 59.5476 4.7429 58.9058 5.17883C58.7847 5.25754 58.6878 5.30598 58.6878 5.27571C58.6878 5.24543 58.7968 5.05774 58.936 4.85793C59.1964 4.45832 59.59 4.13137 60.038 3.94368C60.3407 3.81653 60.4437 3.67727 60.4437 3.40481C60.4437 3.18684 60.2196 2.96887 59.9956 2.96887C59.7171 2.96887 59.0511 3.33821 58.6454 3.7136C58.3427 3.99817 58.1368 4.26457 57.8704 4.71262C57.8644 4.71868 57.6161 4.4886 57.3194 4.19192C56.938 3.81653 56.6534 3.5925 56.3446 3.43508C55.6181 3.05364 54.6191 2.85989 54.3708 3.04153ZM74.3694 23.8212C74.3694 23.8333 74.2907 24.0452 74.1878 24.2874C74.0909 24.5357 74.0062 24.7415 74.0062 24.7476C74.0062 24.7597 69.556 24.7657 64.1128 24.7657H54.2255L54.0681 24.4146C53.9833 24.2269 53.8985 24.0089 53.8743 23.9302L53.838 23.797H64.1007C69.7497 23.797 74.3694 23.8091 74.3694 23.8212ZM73.0071 26.4489C72.9103 26.57 72.7407 26.788 72.6317 26.9273L72.4259 27.1876H64.1067H55.7937L55.612 26.9818C55.5151 26.8667 55.3456 26.6488 55.2427 26.4974L55.0489 26.2189H64.1128H73.1706L73.0071 26.4489ZM70.67 28.8466C70.5187 28.9556 70.2038 29.1736 69.9677 29.331L69.5317 29.6095H64.1067H58.6757L58.155 29.2704C57.8644 29.0827 57.5495 28.8648 57.4587 28.7861L57.2831 28.6407H64.1128H70.9364L70.67 28.8466Z" fill="white"/>
<path d="M56.4594 11.3C56.1264 11.5967 56.084 11.6633 56.084 11.8631C56.084 12.1477 56.2838 12.3535 56.5623 12.3535C56.7197 12.3535 56.8287 12.2809 57.1496 11.9721C57.5795 11.5543 57.6279 11.3969 57.41 11.1184C57.3131 10.9973 57.2344 10.9609 57.0588 10.9609C56.865 10.9609 56.7742 11.0154 56.4594 11.3Z" fill="white"/>
</svg>
