<svg width="683" height="403" stroke="5" viewBox="0 0 683 403" fill="none" xmlns="http://www.w3.org/2000/svg">
<path d="M129.6 3.73339C124.4 8.53339 123.067 15.2001 125.867 21.8667C129.867 31.3334 109.6 30.6667 388.133 30.6667C662.8 30.6667 645.2 30.1334 649.467 38.2667C652.267 43.4667 652.267 359.2 649.467 364.4C645.2 372.533 662.8 372 388.133 372C109.6 372 129.867 371.333 125.867 380.8C123.067 387.467 124.4 394.133 129.6 398.933L133.6 402.667H389.867H646L653.467 399.6C667.333 393.867 677.067 382.933 680.667 369.2C683.6 358.4 683.6 44.2667 680.667 33.4667C677.067 19.7334 667.333 8.80006 653.467 3.06673L646 6.03795e-05H389.867H133.6L129.6 3.73339Z" fill="white"/>
<path d="M193.733 62.6667C186.4 65.7333 182.667 80.5333 187.733 86.4C192.933 92.6667 359.734 217.6 368.934 222.133C390.534 233.067 416.267 233.333 437.334 222.933C444.534 219.467 609.6 94.1333 615.734 87.6C617.334 85.8667 619.067 82.2667 619.6 79.6C621.867 65.2 606.267 57.4667 593.734 66.5333C590.667 68.6667 553.6 97.0667 511.2 129.467C468.667 162 430.8 190.4 426.934 192.8C413.067 201.2 394.267 201.733 380.267 194C376.8 192.133 337.067 162.4 292 127.867C246.933 93.3333 209.067 64.6667 208 64C204.533 62.1333 196.8 61.3333 193.733 62.6667Z" fill="white"/>
<path d="M11.3337 108.933C-0.266347 111.867 -3.73301 127.467 5.46699 135.2L9.60032 138.667H78.0003H146.4L150.534 134.533C154 131.067 154.667 129.467 154.667 124.133C154.667 116.133 151.2 111.333 144.267 109.333C139.334 108 16.667 107.6 11.3337 108.933Z" fill="white"/>
<path d="M58.8007 186.267C53.2007 187.334 49.4673 190.8 47.734 196.134C45.734 203.067 48.0007 210.8 53.0673 214.134C56.4007 216.534 60.534 216.667 123.467 216.667C196.267 216.667 195.467 216.8 199.467 209.067C203.201 201.867 201.201 192.667 194.801 188.4C191.601 186.134 186.134 186 126.667 185.867C91.0673 185.734 60.534 185.867 58.8007 186.267Z" fill="white"/>
<path d="M502.8 220.8C498.4 224.4 496.134 230.533 497.067 236C498 241.067 595.2 338.4 600.934 339.867C614 343.467 625.2 328.533 617.867 317.333C614.667 312.533 528.267 225.733 522.134 221.2C515.334 216.133 508.534 216 502.8 220.8Z" fill="white"/>
<path d="M100.533 265.467C89.7334 270.8 91.8668 290 103.6 293.2C106.8 294.133 131.2 294.667 170.667 294.667C210.133 294.667 234.533 294.133 237.733 293.2C249.733 289.867 251.6 270.533 240.4 265.467C236.133 263.467 104.533 263.6 100.533 265.467Z" fill="white"/>
</svg>
